<svg xmlns="http://www.w3.org/2000/svg" xmlns:xlink="http://www.w3.org/1999/xlink" width="410" height="264.351" viewBox="0 0 410 264.351"><defs><style>.a{fill:none;}.b{fill:#ffcde7;}.c{fill:#fff;}.d{clip-path:url(#a);}.e{fill:#333;}.f{fill:#ffc112;}.g{fill:#21a465;}.h{fill:#57bb8a;}.i{fill:#f7f7f7;}.j{fill:#f1f1f1;}</style><clipPath id="a"><rect class="a" width="145" height="48" transform="translate(0.171 0.418)"/></clipPath></defs><g transform="translate(-260 -1515)"><rect class="b" width="408.754" height="259.918" rx="8" transform="translate(261.246 1517.377)"/><path d="M531.577,478.288H132.089a5.381,5.381,0,0,1-5.256-5.486V223.08a8.97,8.97,0,0,1,8.761-9.143H528.072a8.968,8.968,0,0,1,8.761,9.143V472.8A5.379,5.379,0,0,1,531.577,478.288ZM135.594,217.594a5.381,5.381,0,0,0-5.256,5.486V472.8a1.8,1.8,0,0,0,1.752,1.829H531.577a1.794,1.794,0,0,0,1.752-1.829V223.08a5.379,5.379,0,0,0-5.256-5.486Z" transform="translate(133.167 1301.063)"/><rect class="c" width="376.754" height="229.918" rx="8" transform="translate(277 1532.377)"/><path d="M499.508,447.167H131.673a4.846,4.846,0,0,1-4.84-4.84V222a8.078,8.078,0,0,1,8.066-8.067H496.281A8.076,8.076,0,0,1,504.348,222V442.327A4.844,4.844,0,0,1,499.508,447.167Zm-364.608-230a4.846,4.846,0,0,0-4.84,4.84V442.327a1.618,1.618,0,0,0,1.613,1.613H499.508a1.616,1.616,0,0,0,1.613-1.613V222a4.844,4.844,0,0,0-4.84-4.84Z" transform="translate(149.41 1316.624)"/><g transform="translate(393.082 1568.282)"><g class="d" transform="translate(-0.253 0.3)"><path class="e" d="M74.546,17.256A12.394,12.394,0,0,0,62.713,28.793c-.362,6.278,4.634,11.866,11.142,12.523,6.541.657,11.833-4.536,11.833-11.537,0-7.034-5-12.621-11.142-12.523m4.4,12.983c-.263,3.254-2.3,5.029-3.648,5.161-3.385.394-6.278-2.663-6.081-6.574S71,22.482,74.184,22.417,79.312,26,78.95,30.239M98.7,17.88a12.37,12.37,0,0,1,11.833,11.537c.394,6.278-4.6,11.866-11.142,12.523S87.562,37.438,87.562,30.4s5-12.621,11.142-12.523m-.756,18.177c3.385.394,6.278-2.7,6.081-6.574-.2-3.912-1.775-6.344-4.963-6.409S93.938,26.656,94.3,30.9c.3,3.221,2.3,5,3.648,5.161M27.116,12.03,17.749,22.318,23.961,44.7H17.223L12.26,27.544,7.56,32.08,7.625,44.7,0,44.439V8.381L7.625,6.442v15.35L20.51,9.5Zm20.937,4.142c7.1-2.235,10.879-2.2,11.9,8.118l2.531,17.65H55.778l-.427-10.222-.625-7.264c-.164-5.095-4.8-3.813-6.212-3.188l.362,20.641-6.409-.23L41.414,1.709,47.922,0ZM136.47,42.138h4.4l1.676,4.832L138.606,49.3l-4.01-2.761Zm-17.026-35.7-.1,9.335,7.33.493v4.569l-7.132.394.592,13.8s.033,1.085,2.268,1.085a9.7,9.7,0,0,0,4.306-1.216V41.94c.1,2.136-2.958,3.057-2.958,3.057-9.795,1.446-9.072-4.963-9.072-4.963l-.329-17.848h-4.6l-1.085-7.494,5.686.2V4.339Zm25.177.066-5.193,33.1L131.145,3.944ZM25.506,16.4S38.555,10.649,40.1,21l-.2,22.252H30.009a5.906,5.906,0,0,1-5.686-4.634S20.97,26.393,34.183,24.06l.033-2.991s-2.5-2.662-6.935,0Zm8.677,22.581.164-9.959c-5.39-.789-5.489,6.443-5.489,6.443.526,4.667,5.325,3.517,5.325,3.517" transform="translate(0.361 -0.428)"/></g></g><g transform="translate(1023.592 377.592)"><rect class="f" width="72" height="72" transform="translate(-594.592 1279.408)"/><rect class="g" width="60" height="60" transform="translate(-588.592 1285.408)"/><g transform="translate(-581.347 1301.59)"><path class="h" d="M144.452,229.818a3.909,3.909,0,1,0-3.906-3.909A3.91,3.91,0,0,0,144.452,229.818Zm0,2.606c-4.18,0-8.679,2.215-8.679,4.966v2.852H153.13v-2.852C153.13,234.64,148.632,232.425,144.452,232.425Zm-27.773-2.606a3.909,3.909,0,1,0-3.906-3.909A3.91,3.91,0,0,0,116.679,229.818Zm0,2.606c-4.18,0-8.679,2.215-8.679,4.966v2.852h17.358v-2.852C125.358,234.64,120.859,232.425,116.679,232.425Z" transform="translate(-108 -215.921)"/><path class="i" d="M192.162,190.425a5.212,5.212,0,1,0-5.212-5.212A5.209,5.209,0,0,0,192.162,190.425Zm0,3.475c-5.864,0-12.162,3.113-12.162,6.95v3.475h24.324v-3.475C204.324,197.012,198.026,193.9,192.162,193.9Z" transform="translate(-169.597 -180)"/></g><path class="j" d="M312,420h17.347v4.385H312Z" transform="translate(-863.64 921.393)"/></g></g></svg>